# xmcd
#
# Track frame offsets:
#	150
#	16923
#	34568
#	57087
#	91396
#	108938
#	131646
#	146074
#	162786
#	189290
#	203269
#	228653
#	246112
#
# Disc length: 3457 seconds
#
# Revision: 0
# Processed by: cddbd v1.5.2PL0 Copyright (c) Steve Scherf et al.
# Submitted via: EZCDAudioConverter 2.1.7.1
#
DISCID=9f0d7f0d
DTITLE=V/A - Cuisine Non-Stop
DYEAR=2002
DGENRE=
TTITLE0=Lo'Jo - Baji Larabat
TTITLE1=Têtes Raides - Un P'tit Air
TTITLE2=Louise Attaque - Du Nord Au Sud
TTITLE3=Arthur H - Naïve Derviche
TTITLE4=Java - Au Banquet Des Chasseurs
TTITLE5=Ignatus - La Politique
TTITLE6=La Tordue - René Bouteille
TTITLE7=La Tordue - Les Lolos
TTITLE8=Dupain - Fèm Ren
TTITLE9=Mickey 3D - Good Bye Green Day
TTITLE10=Lo'Jo - Brûlé La Mèche
TTITLE11=CQMD - Horses
TTITLE12=Les Pires - Dancing With Jean-Maurice
EXTD=
EXTT0=
EXTT1=
EXTT2=
EXTT3=
EXTT4=
EXTT5=
EXTT6=
EXTT7=
EXTT8=
EXTT9=
EXTT10=
EXTT11=
EXTT12=
PLAYORDER=
